<svg xmlns="http://www.w3.org/2000/svg" viewBox="0 0 64 64" width="64" height="64">
<defs>
<linearGradient id="cg" x1="0" y1="0" x2="1" y2="1">
<stop offset="0" stop-color="#8fefff"></stop>
<stop offset="0.5" stop-color="#9d7bff"></stop>
<stop offset="1" stop-color="#e08bff"></stop>
</linearGradient>
</defs>
<rect width="64" height="64" rx="15" fill="#0a0b12"></rect>
<polygon points="32,6 55,19 55,45 32,58 9,45 9,19" fill="url(#cg)" opacity="0.16"></polygon>
<polygon points="32,11 50,21.5 50,42.5 32,53 14,42.5 14,21.5" fill="url(#cg)"></polygon>
<polygon points="14,42.5 32,53 50,42.5 41.5,37.5 32,43 22.5,37.5" fill="#3a2f6e" opacity="0.55"></polygon>
<polygon points="32,21 41.5,26.5 41.5,37.5 32,43 22.5,37.5 22.5,26.5" fill="#e6fbff" opacity="0.92"></polygon>
<polygon points="32,21 41.5,26.5 32,32 22.5,26.5" fill="#ffffff" opacity="0.7"></polygon>
<polygon points="32,11 50,21.5 50,42.5 32,53 14,42.5 14,21.5" fill="none" stroke="#d6ecff" stroke-width="1" opacity="0.5"></polygon>
</svg>